<svg width="178" height="187" viewBox="0 0 178 187" fill="none" xmlns="http://www.w3.org/2000/svg">
<circle cx="89" cy="89" r="89" transform="matrix(-1 0 0 1 178 8.24072)" fill="#EEF9F4"/>
<path d="M34.5729 91.8369L62.9699 38.5172C64.9252 34.8322 69.5127 33.4033 73.1977 35.3586C74.1754 35.8098 75.0026 36.5619 75.6794 37.3891H75.7546C88.6898 55.6637 105.836 70.6293 125.765 80.7819V80.7067C128.322 82.3612 129.225 85.6702 127.871 88.4527L109.672 122.52L109.747 122.445C103.655 133.951 89.3666 138.313 77.8603 132.222C77.8603 132.146 77.8603 132.146 77.8603 132.146V132.071C75.153 130.567 74.1001 127.183 75.6042 124.4C77.1083 121.618 80.4925 120.565 83.2751 122.069V121.994C86.208 123.498 89.5922 123.874 92.7508 122.896C94.0292 122.445 95.1573 121.919 96.2854 121.167C98.0151 119.963 98.4663 117.632 97.263 115.902C96.887 115.301 96.3606 114.849 95.7589 114.549H95.8341C78.9132 106.427 60.413 102.14 41.612 102.065H41.6872C37.5509 101.764 34.3923 98.2293 34.6932 94.093C34.7684 92.965 35.0692 91.9121 35.5956 90.9345L34.5729 91.8369Z" fill="#AEE0C5"/>
<mask id="mask0_198_265" style="mask-type:alpha" maskUnits="userSpaceOnUse" x="118" y="88" width="39" height="45">
<path d="M135.121 90.7471C136.174 88.867 138.43 88.1902 140.235 89.1678L144.747 91.5744H144.822C155.651 96.9139 159.938 110.075 154.523 120.829C149.184 131.583 136.023 135.87 125.269 130.455C124.893 130.229 124.517 130.004 124.216 129.778L119.929 127.372V127.296C118.125 126.244 117.448 123.987 118.501 122.182L135.121 90.7471Z" fill="#12B76A"/>
</mask>
<g mask="url(#mask0_198_265)">
<path fill-rule="evenodd" clip-rule="evenodd" d="M192.338 159.99L125.942 57.7933L124.965 57.939L191.361 160.135L192.338 159.99Z" fill="#12B76A"/>
<path fill-rule="evenodd" clip-rule="evenodd" d="M186.31 157.273L119.915 55.0765L118.938 55.2222L185.334 157.418L186.31 157.273Z" fill="#12B76A"/>
<path fill-rule="evenodd" clip-rule="evenodd" d="M180.276 154.555L113.88 52.3588L112.904 52.5044L179.3 154.701L180.276 154.555Z" fill="#12B76A"/>
<path fill-rule="evenodd" clip-rule="evenodd" d="M174.248 151.839L107.853 49.6429L106.876 49.7886L173.272 151.985L174.248 151.839Z" fill="#12B76A"/>
<path fill-rule="evenodd" clip-rule="evenodd" d="M168.217 149.122L101.822 46.9252L100.845 47.0708L167.241 149.267L168.217 149.122Z" fill="#12B76A"/>
<path fill-rule="evenodd" clip-rule="evenodd" d="M162.188 146.406L95.7925 44.2098L94.8159 44.3555L161.212 146.552L162.188 146.406Z" fill="#12B76A"/>
<path fill-rule="evenodd" clip-rule="evenodd" d="M156.157 143.688L89.7617 41.4921L88.7852 41.6377L155.181 143.834L156.157 143.688Z" fill="#12B76A"/>
<path fill-rule="evenodd" clip-rule="evenodd" d="M150.126 140.972L83.7305 38.7753L82.7539 38.9209L149.15 141.117L150.126 140.972Z" fill="#12B76A"/>
<path fill-rule="evenodd" clip-rule="evenodd" d="M144.096 138.255L77.7002 36.0585L76.7236 36.2041L143.119 138.4L144.096 138.255Z" fill="#12B76A"/>
<path fill-rule="evenodd" clip-rule="evenodd" d="M138.068 135.539L71.6723 33.3427L70.6958 33.4883L137.091 135.685L138.068 135.539Z" fill="#12B76A"/>
<path fill-rule="evenodd" clip-rule="evenodd" d="M132.035 132.821L65.6396 30.6249L64.6631 30.7705L131.059 132.967L132.035 132.821Z" fill="#12B76A"/>
<path fill-rule="evenodd" clip-rule="evenodd" d="M126.009 130.105L59.6138 27.9091L58.6372 28.0547L125.033 130.251L126.009 130.105Z" fill="#12B76A"/>
<path fill-rule="evenodd" clip-rule="evenodd" d="M119.977 127.388L53.581 25.1918L52.6045 25.3374L119 127.534L119.977 127.388Z" fill="#12B76A"/>
</g>
<path d="M138.2 78.0066L140.9 74.7333C141.412 74.112 140.97 73.1747 140.165 73.1747L135.215 73.1747C134.448 73.1747 133.996 74.0348 134.43 74.6668L136.68 77.94C137.039 78.4617 137.797 78.4949 138.2 78.0066Z" fill="#12B76A"/>
<path d="M128.723 70.4907C128.723 72.5949 130.429 74.3007 132.533 74.3007L167.04 74.3007C169.144 74.3007 170.85 72.5949 170.85 70.4907L170.85 48.4662C170.85 46.362 169.144 44.6562 167.04 44.6562L132.533 44.6562C130.429 44.6562 128.723 46.362 128.723 48.4662L128.723 70.4907Z" fill="#12B76A"/>
<rect x="164.609" y="64.9395" width="28.0843" height="3.12048" rx="1.56024" transform="rotate(180 164.609 64.9395)" fill="white"/>
<rect x="164.605" y="55.5776" width="20.2831" height="3.12048" rx="1.56024" transform="rotate(180 164.605 55.5776)" fill="white"/>
<path d="M8.44873 71.8857C6.34879 71.841 4.68271 70.1024 4.72744 68.0024C4.77217 65.9025 6.51077 64.2364 8.61072 64.2811L21.285 64.5511C23.385 64.5958 25.051 66.3344 25.0063 68.4344C24.9616 70.5343 23.223 72.2004 21.123 72.1557L8.44873 71.8857Z" fill="#FCB416"/>
<path d="M29.5182 28.8854C28.6152 26.9891 29.4204 24.7197 31.3168 23.8166C33.2132 22.9136 35.4826 23.7188 36.3856 25.6152L41.836 37.0609C42.739 38.9573 41.9338 41.2267 40.0374 42.1297C38.141 43.0328 35.8716 42.2275 34.9686 40.3311L29.5182 28.8854Z" fill="#FCB416"/>
<path d="M8.76965 44.0464C7.02493 42.8769 6.55862 40.5144 7.72811 38.7697C8.8976 37.025 11.26 36.5587 13.0048 37.7282L23.5351 44.7867C25.2798 45.9562 25.7461 48.3186 24.5766 50.0633C23.4071 51.808 21.0447 52.2744 19.3 51.1049L8.76965 44.0464Z" fill="#FCB416"/>
<rect width="112.074" height="6.5926" rx="3.2963" transform="matrix(-1 0 0 1 146.687 149.981)" fill="#CAEEDC"/>
<circle cx="66.8899" cy="152.592" r="14.1477" fill="#FCB416"/>
<path fill-rule="evenodd" clip-rule="evenodd" d="M71.0716 153.545L65.2604 157.137C64.7282 157.466 64.027 157.306 63.6943 156.779C63.5814 156.601 63.5216 156.394 63.5216 156.184V149C63.5216 148.379 64.0304 147.876 64.6581 147.876C64.8711 147.876 65.0798 147.935 65.2604 148.047L71.0716 151.639C71.6039 151.968 71.7657 152.661 71.4331 153.187C71.3416 153.332 71.218 153.454 71.0716 153.545Z" fill="white"/>
<circle cx="21.2671" cy="21.2671" r="21.2671" transform="matrix(-1 0 0 1 97.3613 0)" fill="#12B76A"/>
<path fill-rule="evenodd" clip-rule="evenodd" d="M83.4635 16.1894L76.0945 21.093L68.7255 16.1894C68.8626 15.9318 69.1444 15.7531 69.4658 15.7531H82.7232C83.0447 15.7531 83.3265 15.9318 83.4635 16.1894ZM68.6372 18.0536L75.6194 22.6997C75.9047 22.8896 76.2844 22.8896 76.5697 22.6997L83.5518 18.0536V25.9928C83.5518 26.4242 83.1771 26.7804 82.7232 26.7804H69.4658C69.012 26.7804 68.6372 26.4242 68.6372 25.9928V18.0536ZM85.209 16.5407C85.209 15.2393 84.0923 14.1777 82.7232 14.1777H69.4658C68.0968 14.1777 66.9801 15.2393 66.9801 16.5407V25.9928C66.9801 27.2942 68.0968 28.3558 69.4658 28.3558H82.7232C84.0923 28.3558 85.209 27.2942 85.209 25.9928V16.5407Z" fill="white"/>
</svg>
