<svg width="195" height="194" viewBox="0 0 195 194" fill="none" xmlns="http://www.w3.org/2000/svg">
<path d="M194.537 96.7582C194.537 150.196 151.217 193.516 97.7792 193.516C44.3411 193.516 1.021 150.196 1.021 96.7582C1.021 43.3201 44.3411 0 97.7792 0C151.217 0 194.537 43.3201 194.537 96.7582Z" fill="#EEF9F4"/>
<path d="M71.8464 76.6914C71.5491 73.8272 68.9862 71.7464 66.1221 72.0436L5.18595 78.3681C2.32178 78.6654 0.24089 81.2282 0.538158 84.0924L11.0704 160.318C11.3677 163.182 13.9305 165.263 16.7947 164.965L72.5447 159.179C75.4089 158.882 77.4898 156.319 77.1925 153.455L71.8464 76.6914Z" fill="#12B76A"/>
<path d="M63.7127 86.7089C63.4154 83.8448 60.8526 81.7639 57.9884 82.0612L15.2031 86.5018C12.339 86.799 10.2581 89.3619 10.5553 92.2261L17.9926 138.631C18.2899 141.496 20.8528 143.576 23.7169 143.279L61.3161 139.377C64.1803 139.08 66.2612 136.517 65.9639 133.653L63.7127 86.7089Z" fill="#E8F2EC"/>
<path d="M61.0289 149.235C60.9174 148.161 59.9563 147.381 58.8822 147.492L27.7659 150.722C26.6919 150.833 25.9115 151.794 26.023 152.868C26.1345 153.943 27.0956 154.723 28.1696 154.611L59.2859 151.382C60.36 151.27 61.1403 150.309 61.0289 149.235Z" fill="#E8F2EC"/>
<path d="M123.154 76.6914C123.451 73.8272 126.014 71.7464 128.878 72.0436L189.814 78.3681C192.678 78.6654 194.759 81.2282 194.462 84.0924L183.93 160.318C183.632 163.182 181.069 165.263 178.205 164.965L122.455 159.179C119.591 158.882 117.51 156.319 117.807 153.455L123.154 76.6914Z" fill="#12B76A"/>
<path d="M131.287 86.7089C131.585 83.8448 134.147 81.7639 137.012 82.0612L179.797 86.5018C182.661 86.799 184.742 89.3619 184.445 92.2261L177.007 138.631C176.71 141.496 174.147 143.576 171.283 143.279L133.684 139.377C130.82 139.08 128.739 136.517 129.036 133.653L131.287 86.7089Z" fill="#E8F2EC"/>
<path d="M133.971 149.235C134.083 148.161 135.044 147.381 136.118 147.492L167.234 150.722C168.308 150.833 169.088 151.794 168.977 152.868C168.866 153.943 167.904 154.723 166.83 154.611L135.714 151.382C134.64 151.27 133.86 150.309 133.971 149.235Z" fill="#E8F2EC"/>
<mask id="mask0_198_400" style="mask-type:alpha" maskUnits="userSpaceOnUse" x="1" y="0" width="194" height="194">
<path d="M194.537 96.7582C194.537 150.196 151.217 193.516 97.7792 193.516C44.3411 193.516 1.021 150.196 1.021 96.7582C1.021 43.3201 44.3411 0 97.7792 0C151.217 0 194.537 43.3201 194.537 96.7582Z" fill="#EEF9F4"/>
</mask>
<g mask="url(#mask0_198_400)">
<path d="M40.5649 50.6429C40.5649 47.4134 43.1829 44.7954 46.4124 44.7954H148.743C151.973 44.7954 154.591 47.4134 154.591 50.6429L147.281 188.058C147.281 191.288 144.663 193.906 141.434 193.906H53.7217C50.4923 193.906 47.8743 191.288 47.8743 188.058L40.5649 50.6429Z" fill="#9DD9BB"/>
<path d="M53.7217 63.7997C53.7217 60.5702 56.3397 57.9522 59.5692 57.9522H135.586C138.816 57.9522 141.434 60.5702 141.434 63.7997L135.586 145.664C135.586 148.894 132.968 151.512 129.739 151.512H65.4167C62.1872 151.512 59.5692 148.894 59.5692 145.664L53.7217 63.7997Z" fill="white"/>
<path d="M53.7212 63.8006C53.7212 60.5711 56.3392 57.9531 59.5687 57.9531H135.586C138.815 57.9531 141.433 60.5711 141.433 63.8006L135.586 145.665C135.586 148.895 132.968 151.513 129.738 151.513H65.4161C62.1867 151.513 59.5687 148.895 59.5687 145.665L53.7212 63.8006Z" fill="white"/>
<path d="M123.892 100.347H120.968V97.4228C120.968 96.6474 120.66 95.9037 120.112 95.3554C119.563 94.8071 118.82 94.499 118.044 94.499C117.269 94.499 116.525 94.8071 115.977 95.3554C115.428 95.9037 115.12 96.6474 115.12 97.4228V100.347H112.197C111.421 100.347 110.678 100.655 110.129 101.203C109.581 101.751 109.273 102.495 109.273 103.27C109.273 104.046 109.581 104.789 110.129 105.338C110.678 105.886 111.421 106.194 112.197 106.194H115.12V109.118C115.12 109.893 115.428 110.637 115.977 111.185C116.525 111.733 117.269 112.041 118.044 112.041C118.82 112.041 119.563 111.733 120.112 111.185C120.66 110.637 120.968 109.893 120.968 109.118V106.194H123.892C124.667 106.194 125.411 105.886 125.959 105.338C126.507 104.789 126.815 104.046 126.815 103.27C126.815 102.495 126.507 101.751 125.959 101.203C125.411 100.655 124.667 100.347 123.892 100.347ZM101.379 105.375C102.939 104.025 104.19 102.355 105.048 100.478C105.905 98.6015 106.349 96.5624 106.349 94.499C106.349 90.6219 104.809 86.9036 102.067 84.1621C99.3259 81.4205 95.6076 79.8804 91.7305 79.8804C87.8534 79.8804 84.1351 81.4205 81.3936 84.1621C78.652 86.9036 77.1118 90.6219 77.1118 94.499C77.1118 96.5624 77.5557 98.6015 78.4133 100.478C79.2709 102.355 80.5221 104.025 82.0822 105.375C77.9894 107.229 75.5727 110.222 73.1358 113.996C70.6989 117.771 71.2687 122.167 71.2644 126.66C71.2644 127.436 71.5724 128.179 72.1207 128.728C72.669 129.276 73.4127 129.584 74.1881 129.584C74.9635 129.584 75.7072 129.276 76.2555 128.728C76.8038 128.179 77.1118 127.436 77.1118 126.66C77.1118 122.008 77.0921 117.546 80.382 114.256C83.6718 110.966 87.078 109.118 91.7305 109.118C96.383 109.118 99.3832 110.966 102.673 114.256C105.963 117.546 106.349 122.008 106.349 126.66C106.349 127.436 106.657 128.179 107.206 128.728C107.754 129.276 108.497 129.584 109.273 129.584C110.048 129.584 110.792 129.276 111.34 128.728C111.889 128.179 112.197 127.436 112.197 126.66C112.192 122.167 112.356 117.771 109.919 113.996C107.482 110.222 105.472 107.229 101.379 105.375ZM91.7305 103.27C89.9957 103.27 88.2999 102.756 86.8575 101.792C85.4151 100.828 84.2909 99.4584 83.627 97.8556C82.9631 96.2529 82.7894 94.4893 83.1278 92.7879C83.4663 91.0864 84.3017 89.5235 85.5283 88.2969C86.755 87.0702 88.3179 86.2348 90.0193 85.8964C91.7208 85.5579 93.4844 85.7316 95.0871 86.3955C96.6898 87.0594 98.0597 88.1836 99.0235 89.626C99.9873 91.0684 100.502 92.7643 100.502 94.499C100.502 96.8253 99.5776 99.0563 97.9327 100.701C96.2878 102.346 94.0568 103.27 91.7305 103.27Z" fill="#12B76A"/>
<path d="M62.4932 163.206C62.4932 161.591 63.8022 160.282 65.4169 160.282H129.739C131.354 160.282 132.663 161.591 132.663 163.206C132.663 164.821 131.354 166.13 129.739 166.13H65.4169C63.8022 166.13 62.4932 164.821 62.4932 163.206Z" fill="#CAEEDC"/>
<path d="M72.7262 177.825C72.7262 176.21 74.0352 174.901 75.65 174.901H119.506C121.121 174.901 122.43 176.21 122.43 177.825C122.43 179.439 121.121 180.748 119.506 180.748H75.65C74.0352 180.748 72.7262 179.439 72.7262 177.825Z" fill="#CAEEDC"/>
</g>
<path d="M19.9764 51.9786C18.7152 51.8137 17.8265 50.6576 17.9914 49.3965C18.1564 48.1353 19.3124 47.2466 20.5736 47.4115L28.1854 48.4068C29.4466 48.5717 30.3353 49.7278 30.1704 50.989C30.0055 52.2502 28.8494 53.1389 27.5882 52.9739L19.9764 51.9786Z" fill="#FCB416"/>
<path d="M44.4102 24.9798C44.5751 23.7186 45.7312 22.8299 46.9923 22.9949C48.2535 23.1598 49.1422 24.3158 48.9773 25.577L47.9819 33.1889C47.817 34.45 46.661 35.3387 45.3998 35.1738C44.1386 35.0089 43.2499 33.8528 43.4148 32.5917L44.4102 24.9798Z" fill="#FCB416"/>
<path d="M24.1932 30.2205C23.418 29.2121 23.6071 27.7663 24.6154 26.9911C25.6238 26.2159 27.0697 26.405 27.8449 27.4134L32.5235 33.4996C33.2986 34.508 33.1096 35.9538 32.1012 36.729C31.0928 37.5042 29.6469 37.3151 28.8717 36.3067L24.1932 30.2205Z" fill="#FCB416"/>
</svg>
