<svg width="212" height="196" viewBox="0 0 212 196" fill="none" xmlns="http://www.w3.org/2000/svg">
<circle cx="117.388" cy="94.6116" r="94.6116" fill="#EEF9F4"/>
<mask id="mask0_198_413" style="mask-type:alpha" maskUnits="userSpaceOnUse" x="73" y="56" width="86" height="51">
<path fill-rule="evenodd" clip-rule="evenodd" d="M157.128 82.4295C156.152 85.6444 154.398 88.5689 152.022 90.944C149.646 93.3189 146.72 95.0713 143.505 96.0457L117.907 103.806C116.859 104.741 115.451 105.227 113.999 105.09L113.748 105.066L111.437 105.767C109.163 106.457 106.716 105.856 105.025 104.245L87.7988 102.624C85.1721 102.377 82.6461 101.486 80.446 100.03C78.2456 98.5734 76.4384 96.5969 75.1844 94.2754C73.9305 91.9538 73.2684 89.3588 73.257 86.7203C73.2455 84.0817 73.8851 81.4811 75.1189 79.1487C76.3527 76.8164 78.1426 74.8243 80.3303 73.3491C82.5179 71.8738 85.0357 70.9609 87.6604 70.6911C90.2852 70.4214 92.9359 70.8032 95.3779 71.8027C97.8195 72.8021 99.9771 74.3883 101.659 76.4206L109.434 85.8104L119.565 66.8638C121.149 63.9012 123.439 61.3749 126.232 59.5087C129.026 57.6422 132.237 56.4936 135.58 56.1646C138.924 55.8356 142.297 56.3363 145.401 57.6224C148.505 58.9085 151.243 60.9403 153.374 63.5377C155.505 66.1351 156.963 69.2181 157.618 72.5134C158.272 75.8087 158.104 79.2147 157.128 82.4295ZM142.765 81.6818C143.618 80.8292 144.247 79.7794 144.598 78.6253C144.948 77.4713 145.009 76.2486 144.773 75.0657C144.538 73.8828 144.015 72.7761 143.25 71.8437C142.485 70.9112 141.502 70.1819 140.388 69.7202C139.274 69.2585 138.063 69.0788 136.863 69.1969C135.662 69.315 134.51 69.7273 133.507 70.3973C132.504 71.0673 131.681 71.9753 131.113 73.039L122.765 88.6492L139.707 83.5132C140.862 83.1634 141.912 82.5344 142.765 81.6818ZM86.1219 91.4534C85.332 90.9306 84.6833 90.2211 84.2332 89.3878C83.783 88.5544 83.5454 87.6228 83.5413 86.6757C83.5371 85.7285 83.7667 84.7949 84.2096 83.9577C84.6525 83.1204 85.2951 82.4053 86.0804 81.8757C86.8657 81.3462 87.7695 81.0184 88.7117 80.9216C89.6539 80.8248 90.6055 80.9619 91.4821 81.3207C92.3587 81.6795 93.1338 82.2496 93.7377 82.9793L102.604 93.6876L88.7614 92.3847C87.8184 92.296 86.9118 91.9761 86.1219 91.4534Z" fill="#FCB416"/>
</mask>
<g mask="url(#mask0_198_413)">
<path fill-rule="evenodd" clip-rule="evenodd" d="M192.587 151.021L108.335 21.3337L109.276 20.8687L193.528 150.556L192.587 151.021Z" fill="#12B76A"/>
<path fill-rule="evenodd" clip-rule="evenodd" d="M222.615 164.548L138.363 34.8605L139.304 34.3955L223.556 164.083L222.615 164.548Z" fill="#12B76A"/>
<path fill-rule="evenodd" clip-rule="evenodd" d="M186.543 148.299L102.29 18.6115L103.231 18.1465L187.484 147.834L186.543 148.299Z" fill="#12B76A"/>
<path fill-rule="evenodd" clip-rule="evenodd" d="M216.569 161.825L132.317 32.1379L133.258 31.6729L217.51 161.36L216.569 161.825Z" fill="#12B76A"/>
<path fill-rule="evenodd" clip-rule="evenodd" d="M180.498 145.574L96.2455 15.8869L97.1865 15.4219L181.439 145.109L180.498 145.574Z" fill="#12B76A"/>
<path fill-rule="evenodd" clip-rule="evenodd" d="M210.526 159.102L126.274 29.4142L127.215 28.9492L211.467 158.637L210.526 159.102Z" fill="#12B76A"/>
<path fill-rule="evenodd" clip-rule="evenodd" d="M174.448 142.852L90.1953 13.1642L91.1362 12.6992L175.388 142.387L174.448 142.852Z" fill="#12B76A"/>
<path fill-rule="evenodd" clip-rule="evenodd" d="M204.476 156.376L120.224 26.6881L121.165 26.2231L205.417 155.911L204.476 156.376Z" fill="#12B76A"/>
<path fill-rule="evenodd" clip-rule="evenodd" d="M168.403 140.127L84.1503 10.4391L85.0913 9.97412L169.344 139.662L168.403 140.127Z" fill="#12B76A"/>
<path fill-rule="evenodd" clip-rule="evenodd" d="M198.432 153.655L114.18 23.967L115.121 23.502L199.373 153.19L198.432 153.655Z" fill="#12B76A"/>
<path fill-rule="evenodd" clip-rule="evenodd" d="M162.363 137.406L78.1103 7.71891L79.0513 7.25391L163.304 136.941L162.363 137.406Z" fill="#12B76A"/>
<path fill-rule="evenodd" clip-rule="evenodd" d="M156.314 134.682L72.062 4.9943L73.0029 4.5293L157.255 134.217L156.314 134.682Z" fill="#12B76A"/>
<path fill-rule="evenodd" clip-rule="evenodd" d="M150.272 131.96L66.02 2.27213L66.9609 1.80713L151.213 131.495L150.272 131.96Z" fill="#12B76A"/>
<path fill-rule="evenodd" clip-rule="evenodd" d="M144.224 129.236L59.9721 -0.451989L60.9131 -0.916992L145.165 128.771L144.224 129.236Z" fill="#12B76A"/>
<path fill-rule="evenodd" clip-rule="evenodd" d="M138.181 126.512L53.9287 -3.17562L54.8696 -3.64062L139.122 126.047L138.181 126.512Z" fill="#12B76A"/>
<path fill-rule="evenodd" clip-rule="evenodd" d="M132.133 123.789L47.8808 -5.89877L48.8218 -6.36377L133.074 123.324L132.133 123.789Z" fill="#12B76A"/>
<path fill-rule="evenodd" clip-rule="evenodd" d="M126.091 121.068L41.8388 -8.61996L42.7798 -9.08496L127.032 120.603L126.091 121.068Z" fill="#12B76A"/>
<path fill-rule="evenodd" clip-rule="evenodd" d="M120.043 118.343L35.7905 -11.3451L36.7314 -11.8101L120.984 117.878L120.043 118.343Z" fill="#12B76A"/>
<path fill-rule="evenodd" clip-rule="evenodd" d="M114.001 115.621L29.749 -14.0667L30.6899 -14.5317L114.942 115.156L114.001 115.621Z" fill="#12B76A"/>
<path fill-rule="evenodd" clip-rule="evenodd" d="M107.958 112.898L23.7055 -16.7894L24.6465 -17.2544L108.899 112.433L107.958 112.898Z" fill="#12B76A"/>
<path fill-rule="evenodd" clip-rule="evenodd" d="M101.91 110.174L17.6577 -19.514L18.5986 -19.979L102.851 109.709L101.91 110.174Z" fill="#12B76A"/>
<path fill-rule="evenodd" clip-rule="evenodd" d="M95.8611 107.45L11.6088 -22.2371L12.5498 -22.7021L96.8021 106.985L95.8611 107.45Z" fill="#12B76A"/>
<path fill-rule="evenodd" clip-rule="evenodd" d="M89.8201 104.729L5.56781 -24.9588L6.50879 -25.4238L90.7611 104.264L89.8201 104.729Z" fill="#12B76A"/>
<path fill-rule="evenodd" clip-rule="evenodd" d="M83.7766 102.006L-0.475642 -27.682L0.465332 -28.147L84.7176 101.541L83.7766 102.006Z" fill="#12B76A"/>
<path fill-rule="evenodd" clip-rule="evenodd" d="M77.7278 99.2805L-6.52447 -30.4071L-5.5835 -30.8721L78.6688 98.8155L77.7278 99.2805Z" fill="#12B76A"/>
</g>
<path d="M178.689 92.4166L56.6323 105.925V103.513L176.759 89.522L178.689 92.4166Z" fill="#EEF9F4"/>
<path d="M55.977 105.607C52.8047 105.95 50.5083 108.796 50.8423 111.969L52.3252 126.056L182.707 111.948L183.941 98.7458C184.282 95.0999 181.195 92.0575 177.554 92.4514L55.977 105.607Z" fill="#AEE0C5"/>
<path d="M54.8115 125.788L180.214 112.218L172.938 190.079C172.647 193.19 169.94 195.509 166.822 195.319L66.348 189.203C63.5244 189.031 61.2384 186.844 60.9423 184.03L54.8115 125.788Z" fill="#80C7A4"/>
<path d="M127.067 97.7236L106.804 100.136V119.916L127.067 117.986V97.7236Z" fill="#80C7A4"/>
<path d="M109.699 119.848L124.172 118.282V193.16L109.699 192.195V119.848Z" fill="#53AC80"/>
<path d="M58.2983 78.8583C57.0651 78.6971 56.1961 77.5666 56.3574 76.3335C56.5186 75.1003 57.6491 74.2313 58.8822 74.3925L66.3252 75.3658C67.5584 75.527 68.4274 76.6575 68.2661 77.8907C68.1049 79.1238 66.9745 79.9928 65.7413 79.8316L58.2983 78.8583Z" fill="#FCB416"/>
<path d="M82.19 52.4585C82.3512 51.2253 83.4817 50.3563 84.7149 50.5176C85.9481 50.6788 86.817 51.8093 86.6558 53.0425L85.6825 60.4854C85.5213 61.7186 84.3909 62.5876 83.1577 62.4263C81.9245 62.2651 81.0555 61.1347 81.2167 59.9015L82.19 52.4585Z" fill="#FCB416"/>
<path d="M62.4215 57.583C61.6635 56.5969 61.8484 55.1831 62.8344 54.4252C63.8204 53.6672 65.2342 53.8521 65.9922 54.8381L70.567 60.7893C71.325 61.7753 71.1401 63.1891 70.1541 63.947C69.1681 64.705 67.7543 64.5201 66.9963 63.5341L62.4215 57.583Z" fill="#FCB416"/>
<circle cx="22.608" cy="99.6988" r="22.608" fill="#12B76A"/>
<path d="M28.9615 99.9408C28.7527 99.9408 28.5344 99.8744 28.3256 99.8269C27.9028 99.7337 27.4873 99.61 27.0824 99.4568C26.6421 99.2966 26.1582 99.3049 25.7237 99.4801C25.2892 99.6553 24.9348 99.9851 24.7288 100.406L24.52 100.833C23.5956 100.319 22.7462 99.68 21.9956 98.9348C21.2504 98.1841 20.6117 97.3347 20.0975 96.4104L20.4961 96.1447C20.9169 95.9386 21.2466 95.5843 21.4218 95.1498C21.597 94.7153 21.6053 94.2313 21.4451 93.791C21.2944 93.3853 21.1708 92.9699 21.075 92.5478C21.0276 92.339 20.9896 92.1207 20.9611 91.9025C20.8459 91.234 20.4957 90.6286 19.9738 90.1954C19.4518 89.7621 18.7923 89.5295 18.114 89.5394H15.2669C14.8579 89.5355 14.4529 89.6199 14.0794 89.7866C13.7059 89.9534 13.3727 90.1987 13.1026 90.5057C12.8324 90.8128 12.6316 91.1745 12.5137 91.5662C12.3959 91.9579 12.3639 92.3704 12.4198 92.7756C12.9254 96.7514 14.7412 100.446 17.5803 103.274C20.4195 106.103 24.1202 107.906 28.0979 108.397H28.4585C29.1583 108.398 29.834 108.141 30.3566 107.675C30.6568 107.407 30.8967 107.078 31.0603 106.71C31.2238 106.342 31.3075 105.943 31.3056 105.54V102.693C31.294 102.034 31.0539 101.399 30.6264 100.897C30.1989 100.395 29.6105 100.057 28.9615 99.9408ZM29.436 105.635C29.4358 105.77 29.407 105.903 29.3513 106.026C29.2957 106.148 29.2146 106.258 29.1133 106.347C29.0073 106.438 28.8833 106.507 28.7493 106.548C28.6153 106.588 28.4742 106.601 28.3351 106.584C24.7809 106.128 21.4795 104.502 18.9517 101.963C16.424 99.4227 14.8137 96.1137 14.3748 92.5573C14.3597 92.4183 14.3729 92.2776 14.4137 92.1439C14.4545 92.0101 14.522 91.886 14.6121 91.7791C14.701 91.6779 14.8105 91.5967 14.9332 91.5411C15.0559 91.4855 15.1891 91.4566 15.3238 91.4564H18.171C18.3916 91.4515 18.6072 91.5237 18.7804 91.6605C18.9536 91.7974 19.0737 91.9903 19.12 92.2062C19.158 92.4656 19.2054 92.7218 19.2623 92.9749C19.372 93.4752 19.5179 93.9668 19.6989 94.4459L18.3703 95.0628C18.2566 95.1149 18.1545 95.1889 18.0696 95.2806C17.9847 95.3724 17.9187 95.48 17.8755 95.5972C17.8323 95.7145 17.8127 95.8392 17.8178 95.9641C17.8229 96.089 17.8526 96.2116 17.9052 96.325C19.2711 99.2506 21.6228 101.602 24.5485 102.968C24.7795 103.063 25.0387 103.063 25.2697 102.968C25.3881 102.926 25.4969 102.86 25.5897 102.776C25.6826 102.691 25.7577 102.589 25.8107 102.475L26.3991 101.146C26.8897 101.322 27.3904 101.467 27.8986 101.583C28.1516 101.64 28.4079 101.687 28.6673 101.725C28.8831 101.771 29.0761 101.891 29.2129 102.065C29.3498 102.238 29.4219 102.453 29.417 102.674L29.436 105.635Z" fill="white"/>
<circle cx="187.302" cy="36.6246" r="22.608" fill="#12B76A"/>
<g clip-path="url(#clip0_198_413)">
<path fill-rule="evenodd" clip-rule="evenodd" d="M178.054 29.5515C177.683 29.5515 177.382 29.8522 177.382 30.2232V41.6116C177.382 41.9825 177.683 42.2832 178.054 42.2832H195.136C195.507 42.2832 195.808 41.9825 195.808 41.6116V30.2232C195.808 29.8522 195.507 29.5515 195.136 29.5515H178.054ZM174.929 30.2232C174.929 28.4975 176.328 27.0986 178.054 27.0986H195.136C196.862 27.0986 198.261 28.4975 198.261 30.2232V41.6116C198.261 43.3372 196.862 44.7361 195.136 44.7361H178.054C176.328 44.7361 174.929 43.3372 174.929 41.6116V30.2232Z" fill="white"/>
<path fill-rule="evenodd" clip-rule="evenodd" d="M174.929 34.0189C174.929 33.3416 175.478 32.7925 176.156 32.7925H197.034C197.712 32.7925 198.261 33.3416 198.261 34.0189C198.261 34.6963 197.712 35.2454 197.034 35.2454H176.156C175.478 35.2454 174.929 34.6963 174.929 34.0189Z" fill="white"/>
</g>
<defs>
<clipPath id="clip0_198_413">
<rect width="22.7769" height="22.7769" fill="white" transform="translate(175.207 24.5288)"/>
</clipPath>
</defs>
</svg>
