<svg width="196" height="179" viewBox="0 0 196 179" fill="none" xmlns="http://www.w3.org/2000/svg">
<path d="M41.0739 22.1144C53.651 14.4471 67.9776 10.1612 82.6649 9.64675C84.3207 9.58875 85.6644 10.9374 85.6644 12.5942V93.6016C85.6644 94.3844 85.9703 95.1362 86.5169 95.6965L141.821 152.389C142.978 153.575 142.958 155.478 141.732 156.593C133.477 164.101 123.826 169.931 113.319 173.744C101.871 177.9 89.668 179.567 77.5247 178.635C65.3812 177.702 53.5762 174.192 42.8964 168.338C32.2295 162.49 22.9301 154.439 15.6166 144.718C15.602 144.699 15.6059 144.672 15.6253 144.657C15.6443 144.643 15.6485 144.616 15.6348 144.596C6.6651 131.865 1.33411 116.927 0.219522 101.387C-0.905867 85.6963 2.31106 69.9984 9.51757 56.0151C16.7241 42.0317 27.642 30.3028 41.0739 22.1144Z" fill="#9DD9BB"/>
<mask id="mask0_198_315" style="mask-type:alpha" maskUnits="userSpaceOnUse" x="0" y="9" width="144" height="170">
<path d="M41.0739 22.1144C54.5058 13.926 69.9332 9.59424 85.6644 9.59424V94.8225L143.916 154.536C135.198 163.041 124.767 169.589 113.319 173.744C101.871 177.9 89.668 179.567 77.5247 178.635C65.3812 177.702 53.5762 174.192 42.8964 168.338C32.2167 162.483 22.9077 154.419 15.5902 144.683L15.6594 144.631C6.67484 131.892 1.33512 116.941 0.219522 101.387C-0.905867 85.6963 2.31106 69.9984 9.51757 56.0151C16.7241 42.0317 27.642 30.3028 41.0739 22.1144Z" fill="#9DD9BB"/>
</mask>
<g mask="url(#mask0_198_315)">
<circle cx="18.034" cy="18.034" r="18.034" transform="matrix(-0.997293 -0.073525 -0.073525 0.997293 60.5786 96.6411)" fill="#BDEED6"/>
<mask id="mask1_198_315" style="mask-type:alpha" maskUnits="userSpaceOnUse" x="-4" y="131" width="86" height="49">
<path d="M-2.84261 173.338C-3.3934 173.298 -3.80807 172.818 -3.75588 172.268C-2.65989 160.723 2.62367 150.016 11.015 142.394C19.6472 134.552 30.8612 130.616 42.1899 131.451C53.5186 132.286 64.034 137.824 71.423 146.847C78.6057 155.618 82.262 166.983 81.6529 178.565C81.6239 179.117 81.1434 179.53 80.5926 179.49L-2.84261 173.338Z" fill="#9DD9BB"/>
</mask>
<g mask="url(#mask1_198_315)">
<path fill-rule="evenodd" clip-rule="evenodd" d="M100.279 196.936L-14.8249 106.024L-16.356 106.903L98.7484 197.815L100.279 196.936Z" fill="white"/>
<path fill-rule="evenodd" clip-rule="evenodd" d="M139.11 199.798L24.0051 108.887L22.4741 109.766L137.579 200.678L139.11 199.798Z" fill="white"/>
<path fill-rule="evenodd" clip-rule="evenodd" d="M92.4655 196.36L-22.6389 105.448L-24.1699 106.328L90.9345 197.239L92.4655 196.36Z" fill="white"/>
<path fill-rule="evenodd" clip-rule="evenodd" d="M131.293 199.222L16.1882 108.311L14.6572 109.19L129.762 200.102L131.293 199.222Z" fill="white"/>
<path fill-rule="evenodd" clip-rule="evenodd" d="M84.6491 195.784L-30.4553 104.873L-31.9863 105.752L83.1181 196.664L84.6491 195.784Z" fill="white"/>
<path fill-rule="evenodd" clip-rule="evenodd" d="M123.476 198.646L8.37183 107.734L6.84082 108.614L121.945 199.525L123.476 198.646Z" fill="white"/>
<path fill-rule="evenodd" clip-rule="evenodd" d="M76.8327 195.207L-38.2717 104.296L-39.8027 105.175L75.3016 196.086L76.8327 195.207Z" fill="white"/>
<path fill-rule="evenodd" clip-rule="evenodd" d="M115.66 198.07L0.555425 107.158L-0.975586 108.038L114.129 198.949L115.66 198.07Z" fill="white"/>
<path fill-rule="evenodd" clip-rule="evenodd" d="M69.0163 194.631L-46.0881 103.719L-47.6191 104.599L67.4852 195.51L69.0163 194.631Z" fill="white"/>
<path fill-rule="evenodd" clip-rule="evenodd" d="M107.843 197.493L-7.26098 106.582L-8.79199 107.461L106.312 198.373L107.843 197.493Z" fill="white"/>
<path fill-rule="evenodd" clip-rule="evenodd" d="M61.2028 194.055L-53.9016 103.144L-55.4326 104.023L59.6718 194.935L61.2028 194.055Z" fill="white"/>
<path fill-rule="evenodd" clip-rule="evenodd" d="M53.383 193.478L-61.7214 102.567L-63.2524 103.446L51.8519 194.357L53.383 193.478Z" fill="white"/>
<path fill-rule="evenodd" clip-rule="evenodd" d="M45.57 192.903L-69.5344 101.991L-71.0654 102.871L44.039 193.782L45.57 192.903Z" fill="white"/>
</g>
</g>
<path d="M182.035 85.6643C183.692 85.6643 185.04 84.3207 184.982 82.6649C184.624 72.4385 182.436 62.3506 178.514 52.882C174.209 42.4887 167.899 33.0452 159.944 25.0905C151.99 17.1358 142.546 10.8258 132.153 6.5208C122.684 2.59877 112.596 0.410792 102.37 0.0525239C100.714 -0.00548664 99.3706 1.34315 99.3706 3L99.3706 82.6643C99.3706 84.3212 100.714 85.6643 102.371 85.6643H182.035Z" fill="#53AC80"/>
<mask id="mask2_198_315" style="mask-type:alpha" maskUnits="userSpaceOnUse" x="99" y="0" width="87" height="86">
<path d="M185.035 85.6643C185.035 74.4147 182.819 63.2753 178.514 52.882C174.209 42.4887 167.899 33.0452 159.944 25.0905C151.99 17.1358 142.546 10.8258 132.153 6.5208C121.76 2.21577 110.62 -1.83279e-06 99.3706 0L99.3706 85.6643H185.035Z" fill="#53AC80"/>
</mask>
<g mask="url(#mask2_198_315)">
<circle cx="123.604" cy="46.3535" r="15.2933" transform="rotate(-1.51805 123.604 46.3535)" fill="#7BD0A6"/>
<mask id="mask3_198_315" style="mask-type:alpha" maskUnits="userSpaceOnUse" x="86" y="61" width="74" height="40">
<path d="M158.421 98.9758C158.973 98.9611 159.41 98.5015 159.381 97.95C158.88 88.1822 154.838 78.9627 148.069 72.2055C141.07 65.2184 131.728 61.4364 122.098 61.6916C112.469 61.9468 103.34 66.2183 96.7209 73.5663C90.3195 80.6725 86.772 90.0931 86.7883 99.8738C86.7893 100.426 87.25 100.862 87.8021 100.847L158.421 98.9758Z" fill="#9DD9BB"/>
</mask>
<g mask="url(#mask3_198_315)">
<path fill-rule="evenodd" clip-rule="evenodd" d="M70.2772 114.845L171.41 42.4304L172.672 43.2363L71.539 115.651L70.2772 114.845Z" fill="white"/>
<path fill-rule="evenodd" clip-rule="evenodd" d="M37.2709 115.719L138.404 43.3049L139.666 44.1108L38.5327 116.525L37.2709 115.719Z" fill="white"/>
<path fill-rule="evenodd" clip-rule="evenodd" d="M76.9193 114.669L178.052 42.2541L179.314 43.0601L78.1811 115.475L76.9193 114.669Z" fill="white"/>
<path fill-rule="evenodd" clip-rule="evenodd" d="M43.9154 115.543L145.048 43.1286L146.31 43.9346L45.1772 116.349L43.9154 115.543Z" fill="white"/>
<path fill-rule="evenodd" clip-rule="evenodd" d="M83.5634 114.492L184.696 42.0778L185.958 42.8838L84.8252 115.298L83.5634 114.492Z" fill="white"/>
<path fill-rule="evenodd" clip-rule="evenodd" d="M50.5595 115.367L151.692 42.9528L152.954 43.7588L51.8212 116.173L50.5595 115.367Z" fill="white"/>
<path fill-rule="evenodd" clip-rule="evenodd" d="M90.2074 114.317L191.34 41.9021L192.602 42.708L91.4692 115.123L90.2074 114.317Z" fill="white"/>
<path fill-rule="evenodd" clip-rule="evenodd" d="M57.2035 115.191L158.336 42.7766L159.598 43.5825L58.4653 115.997L57.2035 115.191Z" fill="white"/>
<path fill-rule="evenodd" clip-rule="evenodd" d="M96.8519 114.14L197.985 41.7258L199.247 42.5317L98.1137 114.946L96.8519 114.14Z" fill="white"/>
<path fill-rule="evenodd" clip-rule="evenodd" d="M63.8475 115.015L164.98 42.6008L166.242 43.4067L65.1093 115.821L63.8475 115.015Z" fill="white"/>
<path fill-rule="evenodd" clip-rule="evenodd" d="M103.494 113.965L204.626 41.55L205.888 42.356L104.755 114.77L103.494 113.965Z" fill="white"/>
<path fill-rule="evenodd" clip-rule="evenodd" d="M110.141 113.788L211.273 41.3737L212.535 42.1797L111.402 114.594L110.141 113.788Z" fill="white"/>
<path fill-rule="evenodd" clip-rule="evenodd" d="M116.782 113.612L217.914 41.1975L219.176 42.0034L118.043 114.418L116.782 113.612Z" fill="white"/>
</g>
</g>
<path d="M168.788 157.823C169.96 158.995 171.864 158.998 172.994 157.786C179.971 150.302 185.557 141.622 189.479 132.153C193.401 122.684 195.589 112.596 195.948 102.37C196.006 100.714 194.657 99.3706 193 99.3706H115.164C113.383 99.3706 112.49 101.525 113.75 102.785L168.788 157.823Z" fill="#FCB415"/>
<mask id="mask4_198_315" style="mask-type:alpha" maskUnits="userSpaceOnUse" x="110" y="99" width="86" height="61">
<path d="M170.91 159.944C178.864 151.99 185.174 142.546 189.479 132.153C193.784 121.76 196 110.62 196 99.3706H110.336L170.91 159.944Z" fill="#FCB415"/>
</mask>
<g mask="url(#mask4_198_315)">
<circle cx="165.756" cy="120.432" r="12.6791" transform="rotate(-1.51805 165.756 120.432)" fill="#FFD26F"/>
<mask id="mask5_198_315" style="mask-type:alpha" maskUnits="userSpaceOnUse" x="135" y="133" width="61" height="33">
<path d="M194.449 164.064C195.002 164.05 195.439 163.59 195.408 163.039C194.954 155.004 191.611 147.428 186.039 141.866C180.236 136.073 172.491 132.937 164.507 133.149C156.523 133.361 148.955 136.902 143.467 142.994C138.198 148.844 135.261 156.586 135.233 164.633C135.231 165.186 135.692 165.622 136.244 165.607L194.449 164.064Z" fill="#9DD9BB"/>
</mask>
<g mask="url(#mask5_198_315)">
<path fill-rule="evenodd" clip-rule="evenodd" d="M121.545 177.215L205.39 117.179L206.436 117.848L122.591 177.884L121.545 177.215Z" fill="white"/>
<path fill-rule="evenodd" clip-rule="evenodd" d="M94.1799 177.941L178.025 117.905L179.071 118.573L95.226 178.609L94.1799 177.941Z" fill="white"/>
<path fill-rule="evenodd" clip-rule="evenodd" d="M127.051 177.07L210.896 117.034L211.942 117.703L128.097 177.739L127.051 177.07Z" fill="white"/>
<path fill-rule="evenodd" clip-rule="evenodd" d="M99.6887 177.795L183.534 117.759L184.58 118.427L100.735 178.463L99.6887 177.795Z" fill="white"/>
<path fill-rule="evenodd" clip-rule="evenodd" d="M132.559 176.924L216.405 116.888L217.451 117.556L133.605 177.592L132.559 176.924Z" fill="white"/>
<path fill-rule="evenodd" clip-rule="evenodd" d="M105.197 177.65L189.042 117.614L190.088 118.282L106.243 178.318L105.197 177.65Z" fill="white"/>
<path fill-rule="evenodd" clip-rule="evenodd" d="M138.068 176.778L221.913 116.742L222.959 117.41L139.114 177.446L138.068 176.778Z" fill="white"/>
<path fill-rule="evenodd" clip-rule="evenodd" d="M110.705 177.504L194.551 117.468L195.597 118.136L111.751 178.172L110.705 177.504Z" fill="white"/>
<path fill-rule="evenodd" clip-rule="evenodd" d="M143.576 176.632L227.422 116.596L228.468 117.264L144.623 177.3L143.576 176.632Z" fill="white"/>
<path fill-rule="evenodd" clip-rule="evenodd" d="M116.214 177.357L200.059 117.321L201.105 117.989L117.26 178.025L116.214 177.357Z" fill="white"/>
<path fill-rule="evenodd" clip-rule="evenodd" d="M149.083 176.486L232.929 116.45L233.975 117.119L150.129 177.155L149.083 176.486Z" fill="white"/>
<path fill-rule="evenodd" clip-rule="evenodd" d="M154.594 176.34L238.439 116.304L239.485 116.973L155.64 177.009L154.594 176.34Z" fill="white"/>
<path fill-rule="evenodd" clip-rule="evenodd" d="M160.1 176.194L243.945 116.158L244.991 116.827L161.146 176.863L160.1 176.194Z" fill="white"/>
</g>
</g>
</svg>
